<svg width="21" height="21" viewBox="0 0 21 21" fill="none" xmlns="http://www.w3.org/2000/svg">
<path opacity="0.9" d="M10.5 11.1723L1.34034 20.3319C1.2563 20.416 1.15126 20.465 1.02521 20.479C0.899158 20.493 0.780111 20.444 0.668067 20.3319C0.556023 20.2199 0.5 20.1078 0.5 19.9958C0.5 19.8837 0.556023 19.7717 0.668067 19.6597L9.82773 10.5L0.668067 1.34033C0.584034 1.2563 0.535014 1.15126 0.521008 1.02521C0.507002 0.899155 0.556023 0.780109 0.668067 0.668068C0.780111 0.556019 0.892157 0.5 1.0042 0.5C1.11625 0.5 1.22829 0.556019 1.34034 0.668068L10.5 9.82773L19.6597 0.668068C19.7437 0.584034 19.8487 0.535015 19.9748 0.521011C20.1008 0.507 20.2199 0.556023 20.3319 0.668068C20.444 0.780113 20.5 0.892155 20.5 1.0042C20.5 1.11625 20.444 1.22829 20.3319 1.34033L11.1723 10.5L20.3319 19.6597C20.416 19.7437 20.465 19.8487 20.479 19.9748C20.493 20.1008 20.444 20.2199 20.3319 20.3319C20.2199 20.444 20.1078 20.5 19.9958 20.5C19.8837 20.5 19.7717 20.444 19.6597 20.3319L10.5 11.1723Z" fill="#E9E9E9"/>
</svg>
