<svg width="12" height="12" viewBox="0 0 12 12" fill="none" xmlns="http://www.w3.org/2000/svg">
<path d="M6 6.40336L0.504201 11.8992C0.453781 11.9496 0.390756 11.979 0.315125 11.9874C0.239494 11.9958 0.168067 11.9664 0.10084 11.8992C0.0336131 11.8319 0 11.7647 0 11.6975C0 11.6302 0.0336131 11.563 0.10084 11.4958L5.59664 6L0.10084 0.504201C0.0504201 0.453781 0.0210081 0.390756 0.012605 0.315125C0.00420111 0.239494 0.0336131 0.168067 0.10084 0.10084C0.168067 0.0336131 0.235293 0 0.30252 0C0.369747 0 0.436974 0.0336131 0.504201 0.10084L6 5.59664L11.4958 0.10084C11.5462 0.0504201 11.6092 0.0210089 11.6849 0.012605C11.7605 0.00420195 11.8319 0.0336139 11.8992 0.10084C11.9664 0.168067 12 0.235293 12 0.30252C12 0.369747 11.9664 0.436974 11.8992 0.504201L6.40336 6L11.8992 11.4958C11.9496 11.5462 11.979 11.6092 11.9874 11.6849C11.9958 11.7605 11.9664 11.8319 11.8992 11.8992C11.8319 11.9664 11.7647 12 11.6975 12C11.6302 12 11.563 11.9664 11.4958 11.8992L6 6.40336Z" fill="white"/>
</svg>
