<svg width="40" height="30" viewBox="0 0 40 30" fill="none" xmlns="http://www.w3.org/2000/svg">
<g clip-path="url(#clip0_23_228)">
<path d="M3.1875 29.6333C2.50694 29.6333 1.92847 29.3611 1.45208 28.8166C0.975694 28.2722 0.737499 27.6111 0.737499 26.8333V3.84995C0.737499 3.07217 1.02674 2.35273 1.60521 1.69162C2.18368 1.03051 2.81319 0.699951 3.49375 0.699951H16.3562C16.4924 0.699951 16.6285 0.738839 16.7646 0.816617C16.9007 0.894395 17.0198 0.972172 17.1219 1.04995L18.5 2.68328H33.5063C33.9826 2.68328 34.4165 2.79995 34.8078 3.03328C35.1991 3.26662 35.5309 3.57773 35.8031 3.96662H18.0406L16.3052 1.98328H3.49375C3.01736 1.98328 2.62604 2.15828 2.31979 2.50828C2.01354 2.85828 1.86042 3.30551 1.86042 3.84995V26.4833C1.86042 26.9111 1.95399 27.2611 2.14115 27.5333C2.3283 27.8055 2.575 28.0388 2.88125 28.2333L7.57708 9.21662C7.67917 8.94439 7.83229 8.72078 8.03646 8.54578C8.24062 8.37078 8.4618 8.28328 8.7 8.28328H39.1208C39.4951 8.28328 39.7929 8.44856 40.0141 8.77912C40.2352 9.10967 40.3118 9.48884 40.2438 9.91662L35.8031 27.5916C35.633 28.2527 35.3352 28.7583 34.9099 29.1083C34.4846 29.4583 33.9656 29.6333 33.3531 29.6333H3.1875ZM4.05521 28.3499H34.476L39.0698 9.56662H8.64896L4.05521 28.3499ZM4.05521 28.3499L8.64896 9.56662L4.05521 28.3499ZM1.86042 7.11662V1.98328V7.11662Z" fill="white"/>
</g>
<defs>
<clipPath id="clip0_23_228">
<rect width="40" height="30" fill="white"/>
</clipPath>
</defs>
</svg>
