<svg width="13" height="15" viewBox="0 0 13 15" fill="none" xmlns="http://www.w3.org/2000/svg">
<path d="M0.533582 14.4491H4.53545V8.51419H8.46455V14.4491H12.4664V5.20868L6.5 0.525877L0.533582 5.20868V14.4491ZM0.533582 15C0.388059 15 0.262748 14.9457 0.157649 14.8372C0.0525499 14.7287 0 14.5993 0 14.4491V5.20868C0 5.12521 0.0161694 5.04591 0.0485077 4.97078C0.0808459 4.89566 0.137438 4.83306 0.218284 4.78297L6.1847 0.100167C6.23321 0.0667779 6.28576 0.0417361 6.34235 0.0250418C6.39894 0.00834712 6.45149 0 6.5 0C6.56468 0 6.62127 0.00834712 6.66978 0.0250418C6.71829 0.0417365 6.76679 0.0667779 6.8153 0.100167L12.7817 4.78297C12.8626 4.83306 12.9192 4.89566 12.9515 4.97078C12.9838 5.04591 13 5.12521 13 5.20868V14.4491C13 14.5993 12.9474 14.7287 12.8424 14.8372C12.7373 14.9457 12.6119 15 12.4664 15H7.93097V9.06511H5.06903V15L0.533582 15Z" fill="#AEAEAE"/>
</svg>
