<svg width="27" height="30" viewBox="0 0 27 30" fill="none" xmlns="http://www.w3.org/2000/svg">
<path d="M1.1 28.85H9.35V17H17.45V28.85H25.7V10.4L13.4 1.05L1.1 10.4V28.85ZM1.1 29.95C0.799999 29.95 0.541666 29.8417 0.325 29.625C0.108334 29.4083 0 29.15 0 28.85V10.4C0 10.2333 0.0333338 10.075 0.1 9.925C0.166667 9.775 0.283334 9.65 0.450001 9.55L12.75 0.2C12.85 0.133333 12.9583 0.083333 13.075 0.0500002C13.1917 0.0166664 13.3 0 13.4 0C13.5333 0 13.65 0.0166664 13.75 0.0500002C13.85 0.083334 13.95 0.133333 14.05 0.2L26.35 9.55C26.5167 9.65 26.6333 9.775 26.7 9.925C26.7667 10.075 26.8 10.2333 26.8 10.4V28.85C26.8 29.15 26.6917 29.4083 26.475 29.625C26.2583 29.8417 26 29.95 25.7 29.95H16.35V18.1H10.45V29.95L1.1 29.95Z" fill="#AEAEAE"/>
</svg>
